<svg xmlns="http://www.w3.org/2000/svg" viewBox="0 0 55.33 40"><defs><style>.cls-1{fill:#1bc1c1;}.cls-2{fill:#fff;}</style></defs><title>btn-ce</title><g id="Layer_2" data-name="Layer 2"><g id="btn_text"><path d="M4.33,5s-3,35,0,35,49-1,49-1l2-36Z"/><path class="cls-1" d="M1.33,2s-3,35,0,35,49-1,49-1l2-36Z"/><path class="cls-2" d="M8.78,21.23a11.91,11.91,0,0,1,3.88-9.45,12.67,12.67,0,0,1,8.07-2.9,8.5,8.5,0,0,1,3.75.58c.14.07.17.17.18.34l.46,4.75c0,.17-.3.38-.47.38s-.07,0-.14-.1c-.67-1.42-1.45-3.07-2-4.18A2.1,2.1,0,0,0,22,10a1.88,1.88,0,0,0-1.33-.42A5.61,5.61,0,0,0,16.7,11.7c-1.76,2.17-2.63,5.18-2.56,9,.1,5.85,3.38,8.17,6.47,8.11a11,11,0,0,0,2-.24,16.24,16.24,0,0,0,2.94-1c.1,0,.17.1.18.44a.31.31,0,0,1-.1.24A26.84,26.84,0,0,1,21.78,30a12.25,12.25,0,0,1-2.92.42c-5.37.1-10-2.31-10.09-9.14Z"/><path class="cls-2" d="M42.93,29.7c0,.1-.1.17-.27.17l-2.72-.05c-1.7,0-4.28,0-8.16.08-1.33,0-3,.09-4.15.14-.1,0-.1,0-.1-.07s.06-.37.16-.41l1.56-.37c.24-.07.37-.18.36-.55,0-1-.17-7.92-.2-9.45-.06-1.32-.24-7.68-.33-8.8,0-.41-.15-.54-.35-.61l-1.4-.25c-.07,0-.17-.24-.18-.47,0,0,0-.07.07-.07.82,0,1.6,0,2.31,0l1.9,0C39,8.82,41.64,8.67,42,8.67a.18.18,0,0,1,.21.2l.32,4.45c0,.1-.3.28-.4.28s-.07,0-.1-.07c-.5-1-1-2.06-1.52-3.13a1,1,0,0,0-.86-.46,41.26,41.26,0,0,0-5-.46c-.34,0-.37.14-.37.38-.13,2.08-.24,7.49-.19,8.61,2.35.06,6.16.06,7,.08.07,0,.07,0,.07.07,0,.2-.16.58-.26.58-1.32.16-4.69.39-6.45.59-.31,0-.41.11-.4.38,0,1.12,0,7.58,0,8.54,0,.37.14.44.38.44a30.9,30.9,0,0,0,6.21-.69,1.15,1.15,0,0,0,.71-.52C42.1,27,42.7,26,43.26,25.07c0-.07.07-.07.1-.07s.41.26.38.4Z"/></g></g></svg>