<svg xmlns="http://www.w3.org/2000/svg" viewBox="0 0 46 41"><defs><style>.cls-1{fill:#1bc1c1;}.cls-2{fill:#fff;}</style></defs><title>btn-multiply-dwn</title><g id="Layer_2" data-name="Layer 2"><g id="btn_text"><polygon class="cls-1" points="0 5 2 36 42 41 46 0 0 5"/><path class="cls-2" d="M26,25.2c-.26,0-.53,0-.53-.11-.16-1.48-.21-2.86-.37-4.45-1.22.53-2.28,1.06-3.39,1.59-.11.05-.37-.11-.48-.48s-.21-.53-.05-.64c1.06-.79,1.91-1.32,3-2.17-1.06-.79-2.12-1.43-3-2.07-.11-.05-.11-.32.11-.74s.42-.64.58-.53c1.06.53,2,1,3.18,1.54.05-1.54.11-2.75.21-4.19,0-.16.48-.21.79-.21s.85.05.85.21c.05,1.33.05,2.7.16,4.24,1.22-.53,2.23-1,3.29-1.54.16-.05.37.16.58.53s.21.64.05.79c-1.22.79-1.91,1.22-3.07,2,.85.64,1.8,1.32,3,2.23a.54.54,0,0,1-.11.53c-.21.27-.37.53-.48.48-1.17-.58-2.17-1.17-3.23-1.64-.16,1.59-.26,3-.53,4.5,0,.11-.16.11-.42.11Z"/></g></g></svg>