<svg xmlns="http://www.w3.org/2000/svg" viewBox="0 0 43 92"><defs><style>.cls-1{fill:#1bc1c1;}.cls-2{fill:#fff;}</style></defs><title>btn-equals-dwn</title><g id="Layer_2" data-name="Layer 2"><g id="btn_text"><polygon class="cls-1" points="0 2 0 92 37 92 43 0 0 2"/><path class="cls-2" d="M27.85,36.27c0,.39,0,1.09-.19,1.1-2.42.43-12.21,2-13.08,2.17-.54.05-.89-1.54-1-2.51a.22.22,0,0,1,.17-.26c1.67-.07,11.52-.54,13.92-.68a.13.13,0,0,1,.16.13Zm.52,5.31c0,.39,0,1.09-.33,1.12-2.27.42-12,2-12.88,2.15-.54.05-.84-1.54-.94-2.57a.18.18,0,0,1,.18-.21c1.67-.06,11.51-.59,13.82-.67a.13.13,0,0,1,.16.13Z"/></g></g></svg>