<svg xmlns="http://www.w3.org/2000/svg" viewBox="0 0 55.33 40"><defs><style>.cls-1{fill:#1bc1c1;}.cls-2{fill:#fff;}</style></defs><title>Asset 1</title><g id="Layer_2" data-name="Layer 2"><g id="btn_text"><path d="M4.33,8.7s-3,35,0,35,49-1,49-1l2-36Z" transform="translate(0 -3.7)"/><path class="cls-1" d="M1.33,5.7s-3,35,0,35,49-1,49-1l2-36Z" transform="translate(0 -3.7)"/><path class="cls-2" d="M9.73,20.8c0-.12.05-.16.17-.15,1.35.16,3,.46,4.64.68.06-2,0-4.57.1-5.77,0-.12.06-.2.3-.17,1.43.12,2.38.37,2.35.72-.16,1.39-.52,3.69-.8,5.51,1.63.22,3.93.5,5,.67.12,0,.11,0,.11.13,0,.4-.15.87-.31.86-1.05.07-3.09,0-5,0-.39,2.7-.78,5.31-1,6.86a.15.15,0,0,1-.17.15c-.48,0-.82-.27-.81-.43,0-1.53,0-4.05.09-6.66-1.72-.07-3.57,0-4.33-.09-.4,0-.44-1.4-.37-2.24Z" transform="translate(0 -3.7)"/><path class="cls-2" d="M22,34.78a.15.15,0,0,1-.1-.25c3.28-7.26,7.49-17,10.61-24.37.05-.16.1-.23.22-.22,1.16.1,2.38,1.21,2,2-3,6-7,14.09-11.51,22.61-.1.19-.78.25-1.14.22Z" transform="translate(0 -3.7)"/><path class="cls-2" d="M43.39,23.87c0,.4-.25,1-.52,1-1.73,0-5.55.08-7.63,0-.08,0-.11-.09-.1-.21.05-.6.31-1.78.63-1.75,2.7.31,5.64.65,7.52.81a.11.11,0,0,1,.11.13Z" transform="translate(0 -3.7)"/></g></g></svg>