<svg xmlns="http://www.w3.org/2000/svg" viewBox="0 0 47 46.96"><defs><style>.cls-1{fill:#1bc1c1;}.cls-2{fill:#fff;}</style></defs><title>btn-6</title><g id="Layer_2" data-name="Layer 2"><g id="btn_text"><path d="M6,11,3,44s40,5,41,2S47,3,47,3Z"/><path class="cls-1" d="M3,8,0,41s40,5,41,2S44,0,44,0Z"/><path class="cls-2" d="M21.16,22.6a6.63,6.63,0,0,1,.57-1.13,5,5,0,0,1,4.65-2.42C30,19.24,32,22,31.87,25.5c-.21,4-3.53,7-8.28,6.76C19.45,32,16,29.59,16.29,24.05a13.52,13.52,0,0,1,4.18-9.18,14.06,14.06,0,0,1,7.95-3.61c.24,0,.5.2.5.3s-.07.1-.18.13a10.11,10.11,0,0,0-5.29,4.19,15.37,15.37,0,0,0-2.18,5.33c0,.24-.18.77-.24,1.32ZM24,31.67c2.07.11,2.88-2.34,3.06-5.94.15-3-.58-5.27-2.28-5.36-1.53-.08-2.87,1.49-3.51,4a2.3,2.3,0,0,0-.18.88C20.9,29,22,31.57,24,31.67Z"/></g></g></svg>