<svg xmlns="http://www.w3.org/2000/svg" viewBox="0 0 50.84 45"><defs><style>.cls-1{fill:#1bc1c1;}.cls-2{fill:#fff;}</style></defs><title>btn-divide</title><g id="Layer_2" data-name="Layer 2"><g id="btn_text"><path d="M6.84,8.57s-6,38-3,38,47-4,47-4v-38Z" transform="translate(0 -1.57)"/><path class="cls-1" d="M3.84,5.57s-6,38-3,38,47-4,47-4v-38Z" transform="translate(0 -1.57)"/><path class="cls-2" d="M18.91,33.47a.15.15,0,0,1-.09-.25C22.23,26,26.62,16.35,29.88,9c.06-.16.1-.23.22-.22,1.15.12,2.36,1.25,1.92,2.05-3.12,5.95-7.26,14-11.92,22.39-.1.19-.79.24-1.15.2Z" transform="translate(0 -1.57)"/></g></g></svg>