<svg xmlns="http://www.w3.org/2000/svg" viewBox="0 0 53 46"><defs><style>.cls-1{fill:#1bc1c1;}.cls-2{fill:#fff;}</style></defs><title>btn-2</title><g id="Layer_2" data-name="Layer 2"><g id="btn_text"><polygon points="5 6 3 46 53 46 52 3 5 6"/><polygon class="cls-1" points="2 3 0 43 50 43 49 0 2 3"/><path class="cls-2" d="M21.59,30.29c.44,0,.91-.09,1.46-.13A56,56,0,0,0,29.42,29a1.46,1.46,0,0,0,.77-.7l1.16-2.22a.18.18,0,0,1,.13-.11c.17,0,.46.21.43.31l-.4,3.94c0,.31-.14.42-.42.43-1,.06-3.13.13-7.2.39-2.51.16-3.93.32-4.85.37a.84.84,0,0,1-1-.59,2.38,2.38,0,0,1-.25-.67.29.29,0,0,1,.09-.21c3.72-3.64,8-8.07,7.69-13-.19-3-1.88-4.41-3.92-4.28a5.13,5.13,0,0,0-3.87,2.36c0,.07-.06.07-.1.07s-.41-.52-.25-.77a8,8,0,0,1,6.41-3.64c3.66-.23,6.52,1.84,6.76,5.71.34,5.39-4.89,10.46-7.84,12.89-.26.19-.75.56-1.27.9Z"/></g></g></svg>