<svg xmlns="http://www.w3.org/2000/svg" viewBox="0 0 41 37"><defs><style>.cls-1{fill:#1bc1c1;}.cls-2{fill:#fff;}</style></defs><title>btn-3-dwn</title><g id="Layer_2" data-name="Layer 2"><g id="btn_text"><polygon class="cls-1" points="2 5 0 37 36 35 41 0 2 5"/><path class="cls-2" d="M21.81,17.81a7.81,7.81,0,0,1,1.08.22c3.24.62,4.81,2.79,4.72,5-.18,4.18-4.37,5.87-9.06,5.66a8.93,8.93,0,0,1-4.94-1.51c-.26-.22,0-.78.1-.78s0,0,.1,0a8,8,0,0,0,3.8,1c2.72.12,5-1.38,5.12-4.2.1-2.31-1.33-4.69-5.84-4.95-.2,0-.26-.22-.28-.52,0-.1,0-.13.18-.13,4.05-.06,5.63-2,5.74-4.51a3.15,3.15,0,0,0-3.15-3.47,5.67,5.67,0,0,0-4.24,2,.27.27,0,0,1-.14.06c-.14,0-.38-.6-.24-.76A8,8,0,0,1,21.54,8.2c3.84.17,5.86,2.19,5.74,4.91-.1,2.34-2.31,3.85-4.65,4.39a4.09,4.09,0,0,1-.82.17Z" transform="translate(0 -0.87)"/></g></g></svg>