<svg xmlns="http://www.w3.org/2000/svg" viewBox="0 0 55 42"><defs><style>.cls-1{fill:#1bc1c1;}.cls-2{fill:#fff;}</style></defs><title>btn-7-dwn</title><g id="Layer_2" data-name="Layer 2"><g id="btn_text"><polygon class="cls-1" points="0 0 4 42 55 42 50 1 0 0"/><path class="cls-2" d="M33.73,12.86c-.34-.05-.67-.17-1-.26a34.25,34.25,0,0,0-5.22-1,.71.71,0,0,0-.74.4l-2.36,3.92a.11.11,0,0,1-.11.1c-.17,0-.43-.19-.42-.33l.85-4.85c0-.17.11-.23.25-.23.58,0,3.09.21,5.73.35,2.82.16,6.22.28,7.23.33a.23.23,0,0,1,.23.15,3.43,3.43,0,0,1,.65,1.84,1.78,1.78,0,0,1-.32.94C36,18.16,31.53,26,28.62,30.79a.77.77,0,0,1-.7.37c-.75,0-1.65-.29-1.53-.59,2.36-5.76,4.83-11.61,6.79-16.27.16-.4.32-.83.55-1.33Z"/></g></g></svg>