<svg xmlns="http://www.w3.org/2000/svg" viewBox="0 0 54 44"><defs><style>.cls-1{fill:#1bc1c1;}.cls-2{fill:#fff;}</style></defs><title>btn-c-dwn</title><g id="Layer_2" data-name="Layer 2"><g id="btn_text"><polygon class="cls-1" points="0 5 3 44 54 42 52 0 0 5"/><path class="cls-2" d="M19.43,24.92a11.9,11.9,0,0,1,4-9.38,12.67,12.67,0,0,1,8.13-2.75,8.49,8.49,0,0,1,3.74.65c.14.07.17.17.17.34l.37,4.76c0,.17-.31.37-.48.37s-.07,0-.14-.1c-.65-1.43-1.39-3.09-1.94-4.22a2.11,2.11,0,0,0-.51-.68,1.88,1.88,0,0,0-1.33-.44,5.61,5.61,0,0,0-4,2.07c-1.8,2.14-2.72,5.13-2.72,9,0,5.85,3.23,8.23,6.32,8.23a11,11,0,0,0,2-.2,16.22,16.22,0,0,0,3-.92c.1,0,.17.1.17.44a.31.31,0,0,1-.1.24,26.77,26.77,0,0,1-3.84,1.6,12.28,12.28,0,0,1-2.92.37c-5.37,0-9.93-2.48-9.93-9.31Z"/></g></g></svg>