<svg xmlns="http://www.w3.org/2000/svg" viewBox="0 0 43 37"><defs><style>.cls-1{fill:#1bc1c1;}.cls-2{fill:#fff;}</style></defs><title>btn-plus-dwn</title><g id="Layer_2" data-name="Layer 2"><g id="btn_text"><polygon class="cls-1" points="0 0 3 37 42 37 43 0 0 0"/><path class="cls-2" d="M17.42,22.32c0-.13,0-.17.17-.17,1.46,0,3.27.21,5,.3-.13-2.19-.39-4.9-.43-6.19,0-.13,0-.21.3-.21,1.55,0,2.58.17,2.58.56,0,1.5-.22,4-.34,6,1.76.09,4.26.17,5.42.26.13,0,.13,0,.13.13,0,.43-.09.95-.26.95-1.12.17-3.31.3-5.33.43-.17,2.92-.34,5.76-.43,7.44a.16.16,0,0,1-.17.17c-.52,0-.9-.21-.9-.39-.17-1.63-.34-4.34-.52-7.14-1.85.09-3.83.3-4.64.3-.43,0-.6-1.46-.6-2.37Z" transform="translate(0 -5.69)"/></g></g></svg>