<svg xmlns="http://www.w3.org/2000/svg" viewBox="0 0 47 40"><defs><style>.cls-1{fill:#1bc1c1;}.cls-2{fill:#fff;}</style></defs><title>btn-9-dwn</title><g id="Layer_2" data-name="Layer 2"><g id="btn_text"><polygon class="cls-1" points="0 5 0 40 40 40 47 0 0 5"/><path class="cls-2" d="M26.81,19a8.42,8.42,0,0,1-.38,1.21,4.72,4.72,0,0,1-4.25,2.67A5.67,5.67,0,0,1,16,17.23c-.21-3.94,2.68-7.29,7.43-7.54,4.17-.22,7.74,2.25,8,7.78a12.49,12.49,0,0,1-3.12,9.29,12.75,12.75,0,0,1-7.89,4c-.24,0-.55-.18-.56-.31s.06-.11.13-.14A10,10,0,0,0,25.27,26a13.43,13.43,0,0,0,1.62-5.53c0-.24.06-.75.07-1.33Zm-3.63-8.73c-2,.1-2.75,2.63-2.57,6.13.16,3,1.12,5.18,2.92,5.09,1.53-.08,2.64-1.5,3-3.94a5.14,5.14,0,0,0,0-1.09c-.18-3.43-1.39-6.29-3.39-6.19Z"/></g></g></svg>