<svg xmlns="http://www.w3.org/2000/svg" viewBox="0 0 53.44 43.12"><defs><style>.cls-1{fill:#1bc1c1;}.cls-2{fill:#fff;}</style></defs><title>btn-5</title><g id="Layer_2" data-name="Layer 2"><g id="btn_text"><path d="M6,6,3,41s49,4,50,1S53,3,53,3Z"/><path class="cls-1" d="M3,3,0,38s49,4,50,1S50,0,50,0Z"/><path class="cls-2" d="M22.37,31.27c-1.87,0-3.74-.41-4.69-1.29-.24-.2,0-.71.07-.71a.12.12,0,0,1,.1,0,7.94,7.94,0,0,0,3.88.85c2.86,0,5.34-1.6,5.34-4.49s-2.28-4.89-8.3-4.76c-.17,0-.24-.13-.2-.3.1-1.53,1-8.7,1-9.45,0-.1.14-.21.31-.21,1.43,0,3,.1,4.76.14,2.86.07,5.68.1,6.26.1,0,0,.07,0,.07.07,0,.24-.14.71-.27.75-1.7.2-7.55,1.05-9.25,1.53a.88.88,0,0,0-.51.48,33.75,33.75,0,0,0-1.22,4c7.45-.37,11.8,1.94,11.8,6.59,0,4.32-4.18,6.7-9.11,6.7Z"/></g></g></svg>