<svg xmlns="http://www.w3.org/2000/svg" viewBox="0 0 50 40"><defs><style>.cls-1{fill:#1bc1c1;}.cls-2{fill:#fff;}</style></defs><title>btn-8-dwn</title><g id="Layer_2" data-name="Layer 2"><g id="btn_text"><polygon class="cls-1" points="0 3 2 39 50 40 47 0 0 3"/><path class="cls-2" d="M28.73,20.39c.24.07.54.1.71.14,2.75.58,4.86,2.21,4.86,5.07,0,3.16-3,5.68-8.43,5.68-4.52,0-8-1.6-8-5,0-2.62,2-4.49,4.49-5.24.34-.1.65-.17,1-.27v-.1l-.68-.24A4.8,4.8,0,0,1,18.84,16c0-3.09,3.47-5.3,7.75-5.3s6.73,2,6.73,4.69a5.11,5.11,0,0,1-3.94,4.76c-.14,0-.34.1-.65.17ZM26.28,30.63c2.11,0,3.4-1.84,3.4-4.45,0-3-1.46-5.17-3.64-5.17s-3.43,2-3.43,5.13c0,2.92,1.5,4.49,3.64,4.49Zm0-10.44c1.9,0,2.69-2.41,2.69-4.56,0-2.52-.85-4.32-2.75-4.32s-2.89,1.87-2.89,4.28c0,2.72,1.22,4.59,2.92,4.59Z"/></g></g></svg>