<svg xmlns="http://www.w3.org/2000/svg" viewBox="0 0 106 43"><defs><style>.cls-1{fill:#1bc1c1;}.cls-2{fill:#fff;}</style></defs><title>btn-0</title><g id="Layer_2" data-name="Layer 2"><g id="btn_text"><polygon points="3 3 5 39 103 43 106 4 3 3"/><polygon class="cls-1" points="0 0 2 36 100 40 103 1 0 0"/><path class="cls-2" d="M55,29.06c-4.21.27-7.68-2.88-8.07-9-.43-6.79,2.61-11.34,7.74-11.67s7.67,3.77,8,8.86c.44,6.85-1.89,11.4-7.63,11.76ZM51.8,19.58c.36,5.63,1.77,8.95,3.8,8.82s2.62-3.27,2.16-10.46c-.35-5.39-1.49-9-3.53-8.83s-2.87,3.66-2.43,10.41Z" transform="translate(0 -0.87)"/></g></g></svg>