<svg xmlns="http://www.w3.org/2000/svg" viewBox="0 0 52 38"><defs><style>.cls-1{fill:#1bc1c1;}.cls-2{fill:#fff;}</style></defs><title>btn-4-dwn</title><g id="Layer_2" data-name="Layer 2"><g id="btn_text"><polygon class="cls-1" points="0 0 3 38 52 37 49 0 0 0"/><path class="cls-2" d="M34,22.47c0,.24-.1.48-.27.51-.78.07-2.65.14-3.26.17-.07,1.43-.1,2.75-.14,3.94,0,.31.14.37.37.44l1.36.24c.1,0,.17.31.17.44s0,.07-.1.07c-1.43,0-2.45-.07-3.67-.07-1.94,0-3.4,0-4.18.07-.07,0-.07,0-.07-.1s.1-.37.2-.41l1.7-.27c.24,0,.37-.1.37-.41,0-1,0-2.86-.07-3.81-1.43,0-6.09,0-8.64,0-.48,0-.78-.27-1.12-.88a3.43,3.43,0,0,1-.27-.75.31.31,0,0,1,.1-.24c2.92-4,6.43-8.91,9-12.51a1.72,1.72,0,0,1,1.7-.85,21.09,21.09,0,0,1,3.4.31c.17,0,.24.1.24.2,0,2-.34,12.92-.34,13.46,1.12.1,2.65.2,3.43.24.07,0,.07,0,.07.14ZM20,21.08c.44.1.88.13,1.16.2,1.77.2,4.15.48,5.24.51,0-1.05-.07-8.87-.07-9.42s0-1.84.07-2.89h-.14c-.34.65-.68,1.19-.88,1.6-1.8,3.4-3.57,6.6-4.56,8.4-.27.44-.61,1-.88,1.46Z" transform="translate(0 -0.22)"/></g></g></svg>