<svg xmlns="http://www.w3.org/2000/svg" viewBox="0 0 51 41"><defs><style>.cls-1{fill:#1bc1c1;}.cls-2{fill:#fff;}</style></defs><title>btn-1-dwn</title><g id="Layer_2" data-name="Layer 2"><g id="btn_text"><polygon class="cls-1" points="0 0 1 37 49 41 51 1 0 0"/><path class="cls-2" d="M20.78,11.61c-.14,0-.29-.23-.34-.41s0-.14,0-.17l7.76-2.37a.36.36,0,0,1,.17,0,.28.28,0,0,1,.24.33c0,.44-1.11,8.84-1.28,10.74-.29,2.88-.82,7.57-.86,8s.34.41.57.5l1.81.4c.1,0,.18.29.17.42s0,.1-.11.09c-1-.13-2.63-.31-4.6-.49s-3.83-.31-4.61-.35c-.07,0-.06,0-.06-.11s.1-.37.24-.39l2-.09c.21,0,.45-.06.47-.33.12-.95.52-6.54.6-7.73.12-1.7.48-6.41.5-7.81,0-.27-.16-.46-.37-.44Z" transform="translate(0 -2.48)"/></g></g></svg>